<svg xmlns="http://www.w3.org/2000/svg" viewBox="0 0 1035 586.5"><defs><style>.cls-1,.cls-11,.cls-9{fill:none;}.cls-1{stroke:#000;}.cls-1,.cls-10,.cls-11,.cls-12,.cls-9{stroke-miterlimit:10;}.cls-2{fill:#f79ac5;opacity:0.78;}.cls-3{fill:#f4ec92;opacity:0.76;}.cls-4{fill:#8dc3f7;}.cls-4,.cls-5{opacity:0.74;}.cls-5{fill:#e097ff;}.cls-6{fill:#afffa1;}.cls-6,.cls-7{opacity:0.75;}.cls-7{fill:#f78bbc;}.cls-10,.cls-12,.cls-8{fill:#fff;}.cls-10,.cls-11,.cls-12,.cls-9{stroke:#fff;}.cls-10,.cls-12,.cls-9{stroke-width:3px;}.cls-10{fill-rule:evenodd;}</style></defs><title>do.good-logo.color.white</title><g id="Layer_3" data-name="Layer 3"><circle class="cls-1" cx="180.5" cy="180.5" r="180"/><circle class="cls-1" cx="404.5" cy="180.5" r="180"/><circle class="cls-1" cx="180.5" cy="405.5" r="180"/><circle class="cls-1" cx="404.5" cy="405.5" r="180"/><circle class="cls-1" cx="629.5" cy="405.5" r="180"/><circle class="cls-1" cx="854.5" cy="405.5" r="180"/><circle class="cls-2" cx="180" cy="180" r="180"/><circle class="cls-3" cx="405" cy="180" r="180"/><circle class="cls-4" cx="180.5" cy="404.5" r="180"/><circle class="cls-5" cx="405" cy="405" r="180"/><circle class="cls-6" cx="630" cy="405" r="180"/><circle class="cls-7" cx="855" cy="405" r="180"/></g><g id="Layer_1" data-name="Layer 1"><path class="cls-8" d="M324,503.5a106.5,106.5,0,1,1,35-207.11l2,.69V222.35a176.18,176.18,0,0,1,69,31V386.76c.33,3.38.49,6.82.49,10.24A106.62,106.62,0,0,1,324,503.5Zm1-145A37.5,37.5,0,1,0,362.5,396,37.54,37.54,0,0,0,325,358.5Z" transform="translate(-144 -216)"/><path class="cls-8" d="M362.5,224.21a174.62,174.62,0,0,1,66,29.93V386.91c.32,3.33.49,6.73.49,10.09a104.89,104.89,0,1,1-70.49-99.2l4,1.39v-75M325,435a39,39,0,1,0-39-39,39,39,0,0,0,39,39m34.5-214.49V295A108,108,0,1,0,432,397c0-3.5-.17-7-.5-10.38v-134a179,179,0,0,0-72-32.11ZM325,432a36,36,0,1,1,36-36,36,36,0,0,1-36,36Z" transform="translate(-144 -216)"/><path class="cls-8" d="M1000.5,728.5a106.5,106.5,0,1,1,35-207.11l2,.69V447.35a176.18,176.18,0,0,1,69,31V611.76c.33,3.38.49,6.82.49,10.24A106.62,106.62,0,0,1,1000.5,728.5Zm-.5-145a37.5,37.5,0,1,0,37.5,37.5A37.54,37.54,0,0,0,1000,583.5Z" transform="translate(-144 -216)"/><path class="cls-8" d="M1039,449.21a174.62,174.62,0,0,1,66,29.93V611.91c.32,3.33.49,6.73.49,10.09A104.89,104.89,0,1,1,1035,522.8l4,1.39v-75M1000,660a39,39,0,1,0-39-39,39,39,0,0,0,39,39m36-214.49V520a108,108,0,1,0,72.5,102c0-3.5-.17-7-.5-10.38v-134a179,179,0,0,0-72-32.11ZM1000,657a36,36,0,1,1,36-36,36,36,0,0,1-36,36Z" transform="translate(-144 -216)"/><path class="cls-9" d="M431.5,386.62" transform="translate(-144 -216)"/><path class="cls-10" d="M549.5,288.5a108,108,0,1,0,108,108A108,108,0,0,0,549.5,288.5Zm0,144a36,36,0,1,1,36-36A36,36,0,0,1,549.5,432.5Z" transform="translate(-144 -216)"/><circle class="cls-11" cx="405.5" cy="180.5" r="36"/><path class="cls-10" d="M550.5,513.5a108,108,0,1,0,108,108A108,108,0,0,0,550.5,513.5Zm0,144a36,36,0,1,1,36-36A36,36,0,0,1,550.5,657.5Z" transform="translate(-144 -216)"/><path class="cls-10" d="M775.5,514.5a108,108,0,1,0,108,108A108,108,0,0,0,775.5,514.5Zm0,144a36,36,0,1,1,36-36A36,36,0,0,1,775.5,658.5Z" transform="translate(-144 -216)"/><circle class="cls-12" cx="548.5" cy="252.5" r="36"/><path class="cls-12" d="M325,513a108,108,0,1,0,35.5,210v9.16a117.27,117.27,0,0,1-35,5.31c-31.44,0-35.5-9.38-63-18.44s-46.5,35-28,54,61.56,28,90.5,28a179.74,179.74,0,0,0,35.5-3.51c26.58-5.31,53.19-14.35,63-33.11,18.5-35.38,9-133,9-133,.33-3.41.5-6.88.5-10.38A108,108,0,0,0,325,513Zm0,144a36,36,0,1,1,36-36A36,36,0,0,1,325,657Z" transform="translate(-144 -216)"/><circle class="cls-11" cx="181" cy="405" r="36"/></g></svg>