<svg xmlns="http://www.w3.org/2000/svg" viewBox="0 0 1036 755.95"><defs><style>.cls-1,.cls-9{fill:none;}.cls-1,.cls-10,.cls-11,.cls-2,.cls-3,.cls-4,.cls-5,.cls-6,.cls-7,.cls-9{stroke:#fff;stroke-miterlimit:10;}.cls-2{fill:#f79ac5;}.cls-2,.cls-6,.cls-7{opacity:0.75;}.cls-3{fill:#f4ec92;opacity:0.76;}.cls-4{fill:#8dc3f7;}.cls-4,.cls-5{opacity:0.74;}.cls-5{fill:#e097ff;}.cls-6{fill:#afffa1;}.cls-7{fill:#f78bbc;}.cls-10,.cls-11,.cls-8{fill:#fff;}.cls-10,.cls-11,.cls-9{stroke-width:3px;}.cls-10{fill-rule:evenodd;}</style></defs><title>do.good.everyday-logo</title><g id="Layer_3" data-name="Layer 3"><circle class="cls-1" cx="181" cy="181" r="180"/><circle class="cls-1" cx="405" cy="181" r="180"/><circle class="cls-1" cx="181" cy="406" r="180"/><circle class="cls-1" cx="405" cy="406" r="180"/><circle class="cls-1" cx="630" cy="406" r="180"/><circle class="cls-1" cx="855" cy="406" r="180"/><circle class="cls-2" cx="180.5" cy="180.5" r="180"/><circle class="cls-3" cx="405.5" cy="180.5" r="180"/><circle class="cls-4" cx="181" cy="405" r="180"/><circle class="cls-5" cx="405.5" cy="405.5" r="180"/><circle class="cls-6" cx="630.5" cy="405.5" r="180"/><circle class="cls-7" cx="855.5" cy="405.5" r="180"/><path class="cls-8" d="M327.59,898.1q9.83,17,25.83,7.78,8.58-5,8.92-14.46l25.46-14.7q7.07,30.06-23.77,47.87a58.49,58.49,0,0,1-19,7.16,44.6,44.6,0,0,1-18.12-.3,41.52,41.52,0,0,1-15.88-7.51,48.15,48.15,0,0,1-12.46-14.53,53.2,53.2,0,0,1-6.79-18.48,40.8,40.8,0,0,1,.94-17.52,42.41,42.41,0,0,1,8.36-15.59A56.86,56.86,0,0,1,316.73,845a55.65,55.65,0,0,1,18.66-7,39.82,39.82,0,0,1,17.55.83,41.29,41.29,0,0,1,15.6,8.55,60.29,60.29,0,0,1,12.89,15.94l1.6,2.76Zm22-33.09a18.32,18.32,0,0,0-10.51-5.77,17.43,17.43,0,0,0-11.82,2.37q-6.11,3.53-8.12,9a16.73,16.73,0,0,0,.33,11.83Z" transform="translate(-143.5 -215.5)"/><path class="cls-8" d="M423.94,842.25l20.5,44.18,20.83-44.18H499.2l-44.86,86.18H434l-44.35-86.18Z" transform="translate(-143.5 -215.5)"/><path class="cls-8" d="M537.76,898.1q9.83,17,25.83,7.78,8.58-5,8.92-14.46L598,876.72q7.07,30.06-23.77,47.87a58.49,58.49,0,0,1-19,7.16,44.6,44.6,0,0,1-18.12-.3,41.52,41.52,0,0,1-15.88-7.51,48.15,48.15,0,0,1-12.46-14.53A53.2,53.2,0,0,1,502,890.91a40.8,40.8,0,0,1,.94-17.52,42.41,42.41,0,0,1,8.36-15.59A56.86,56.86,0,0,1,526.9,845a55.65,55.65,0,0,1,18.66-7,39.82,39.82,0,0,1,17.55.83,41.29,41.29,0,0,1,15.6,8.55,60.29,60.29,0,0,1,12.89,15.94l1.6,2.76Zm22-33.09a18.32,18.32,0,0,0-10.51-5.77,17.43,17.43,0,0,0-11.82,2.37q-6.11,3.53-8.12,9a16.73,16.73,0,0,0,.33,11.83Z" transform="translate(-143.5 -215.5)"/><path class="cls-8" d="M614.28,842.25h30.41v14.11a35,35,0,0,1,11.93-11.84,32.09,32.09,0,0,1,16.46-4.12h2.6a18.71,18.71,0,0,1,3.28.34v29.06a28.88,28.88,0,0,0-13.1-3q-10.58,0-15.88,6.3t-5.29,18.4v37H614.28Z" transform="translate(-143.5 -215.5)"/><path class="cls-8" d="M729,916.68l-41.66-74.42h35.28l23,44.18L768,842.25h34.94L733.73,971.45h-34.1Z" transform="translate(-143.5 -215.5)"/><path class="cls-8" d="M875.52,789h30.58V928.44H875.52v-9.58q-9.75,12.27-26.38,12.26a41.94,41.94,0,0,1-17.3-3.53,42.77,42.77,0,0,1-13.78-9.74,44.53,44.53,0,0,1-9.16-14.62,51.51,51.51,0,0,1-.17-35.7A44,44,0,0,1,817.56,853a41.74,41.74,0,0,1,31.25-13.44q16.13,0,26.71,11.26Zm-38.3,96.1a20.11,20.11,0,0,0,5.63,14.11,18.44,18.44,0,0,0,6.22,4.2,20,20,0,0,0,7.81,1.51,19.61,19.61,0,0,0,7.64-1.51,18.5,18.5,0,0,0,6.22-4.2,21.74,21.74,0,0,0,4.2-6.22,18.15,18.15,0,0,0,1.6-7.56,18.74,18.74,0,0,0-1.6-7.64,21.46,21.46,0,0,0-4.2-6.3,18.56,18.56,0,0,0-6.22-4.2,20.08,20.08,0,0,0-15.29,0,18.49,18.49,0,0,0-6.22,4.2,22.08,22.08,0,0,0-4.2,6.13A17.53,17.53,0,0,0,837.21,885.09Z" transform="translate(-143.5 -215.5)"/><path class="cls-8" d="M993.29,842.25h30.58v86.18H993.29v-9.58q-9.75,12.27-26.38,12.26a42.84,42.84,0,0,1-17.3-3.44A41.66,41.66,0,0,1,935.83,918a44.53,44.53,0,0,1-9.16-14.62,50,50,0,0,1-3.28-18.31,48.56,48.56,0,0,1,3.19-17.56,45.08,45.08,0,0,1,8.9-14.53,42,42,0,0,1,13.61-9.83,41.52,41.52,0,0,1,17.47-3.61q16.13,0,26.71,11.26ZM955,885.09a20.11,20.11,0,0,0,5.63,14.11,18.44,18.44,0,0,0,6.22,4.2,20,20,0,0,0,7.81,1.51,19.61,19.61,0,0,0,7.64-1.51,18.5,18.5,0,0,0,6.22-4.2,21.74,21.74,0,0,0,4.2-6.22,18.15,18.15,0,0,0,1.6-7.56,18.74,18.74,0,0,0-1.6-7.64,21.46,21.46,0,0,0-4.2-6.3,18.56,18.56,0,0,0-6.22-4.2,19.61,19.61,0,0,0-7.64-1.51,20,20,0,0,0-7.81,1.51,18.49,18.49,0,0,0-6.22,4.2,20.71,20.71,0,0,0-4.12,6.13A18.38,18.38,0,0,0,955,885.09Z" transform="translate(-143.5 -215.5)"/><path class="cls-8" d="M1077.45,916.68l-41.66-74.42h35.28l23,44.18,22.34-44.18h34.94l-69.22,129.19H1048Z" transform="translate(-143.5 -215.5)"/></g><g id="Layer_1" data-name="Layer 1"><path class="cls-8" d="M324,503.5a106.5,106.5,0,1,1,35-207.11l2,.69V222.35a176.18,176.18,0,0,1,69,31V386.76c.33,3.38.49,6.82.49,10.24A106.62,106.62,0,0,1,324,503.5Zm1-145A37.5,37.5,0,1,0,362.5,396,37.54,37.54,0,0,0,325,358.5Z" transform="translate(-143.5 -215.5)"/><path class="cls-8" d="M362.5,224.21a174.62,174.62,0,0,1,66,29.93V386.91c.32,3.33.49,6.73.49,10.09a104.89,104.89,0,1,1-70.49-99.2l4,1.39v-75M325,435a39,39,0,1,0-39-39,39,39,0,0,0,39,39m34.5-214.49V295A108,108,0,1,0,432,397c0-3.5-.17-7-.5-10.38v-134a179,179,0,0,0-72-32.11ZM325,432a36,36,0,1,1,36-36,36,36,0,0,1-36,36Z" transform="translate(-143.5 -215.5)"/><path class="cls-8" d="M1000.5,728.5a106.5,106.5,0,1,1,35-207.11l2,.69V447.35a176.18,176.18,0,0,1,69,31V611.76c.33,3.38.49,6.82.49,10.24A106.62,106.62,0,0,1,1000.5,728.5Zm-.5-145a37.5,37.5,0,1,0,37.5,37.5A37.54,37.54,0,0,0,1000,583.5Z" transform="translate(-143.5 -215.5)"/><path class="cls-8" d="M1039,449.21a174.62,174.62,0,0,1,66,29.93V611.91c.32,3.33.49,6.73.49,10.09A104.89,104.89,0,1,1,1035,522.8l4,1.39v-75M1000,660a39,39,0,1,0-39-39,39,39,0,0,0,39,39m36-214.49V520a108,108,0,1,0,72.5,102c0-3.5-.17-7-.5-10.38v-134a179,179,0,0,0-72-32.11ZM1000,657a36,36,0,1,1,36-36,36,36,0,0,1-36,36Z" transform="translate(-143.5 -215.5)"/><path class="cls-9" d="M431.5,386.62" transform="translate(-143.5 -215.5)"/><path class="cls-10" d="M549.5,288.5a108,108,0,1,0,108,108A108,108,0,0,0,549.5,288.5Zm0,144a36,36,0,1,1,36-36A36,36,0,0,1,549.5,432.5Z" transform="translate(-143.5 -215.5)"/><circle class="cls-1" cx="406" cy="181" r="36"/><path class="cls-10" d="M550.5,513.5a108,108,0,1,0,108,108A108,108,0,0,0,550.5,513.5Zm0,144a36,36,0,1,1,36-36A36,36,0,0,1,550.5,657.5Z" transform="translate(-143.5 -215.5)"/><path class="cls-10" d="M775.5,514.5a108,108,0,1,0,108,108A108,108,0,0,0,775.5,514.5Zm0,144a36,36,0,1,1,36-36A36,36,0,0,1,775.5,658.5Z" transform="translate(-143.5 -215.5)"/><circle class="cls-11" cx="549" cy="253" r="36"/><path class="cls-11" d="M325,513a108,108,0,1,0,35.5,210v9.16a117.27,117.27,0,0,1-35,5.31c-31.44,0-35.5-9.38-63-18.44s-46.5,35-28,54,61.56,28,90.5,28a179.74,179.74,0,0,0,35.5-3.51c26.58-5.31,53.19-14.35,63-33.11,18.5-35.38,9-133,9-133,.33-3.41.5-6.88.5-10.38A108,108,0,0,0,325,513Zm0,144a36,36,0,1,1,36-36A36,36,0,0,1,325,657Z" transform="translate(-143.5 -215.5)"/><circle class="cls-1" cx="181.5" cy="405.5" r="36"/></g></svg>