<svg id="Layer_1" data-name="Layer 1" xmlns="http://www.w3.org/2000/svg" viewBox="0 0 892.5 580.49"><defs><style>.cls-1,.cls-3{fill:none;}.cls-1{stroke:#000;stroke-miterlimit:10;stroke-width:3px;}.cls-2{fill-rule:evenodd;}</style></defs><title>do.good-logo</title><line class="cls-1" x1="215.5" y1="32.11" x2="215.5" y2="31.99"/><path d="M286.5,170.62v-134a179,179,0,0,0-72-32.11V79A108,108,0,1,0,287,181C287,177.5,286.83,174,286.5,170.62ZM180,216a36,36,0,1,1,36-36A36,36,0,0,1,180,216Z" transform="translate(-71 -4.51)"/><path d="M963,395.62v-134a179,179,0,0,0-72-32.11V304a108,108,0,1,0,72.5,102C963.5,402.5,963.33,399,963,395.62ZM855,441a36,36,0,1,1,36-36A36,36,0,0,1,855,441Z" transform="translate(-71 -4.51)"/><path class="cls-1" d="M286.5,170.62" transform="translate(-71 -4.51)"/><path class="cls-2" d="M404.5,72.5a108,108,0,1,0,108,108A108,108,0,0,0,404.5,72.5Zm0,144a36,36,0,1,1,36-36A36,36,0,0,1,404.5,216.5Z" transform="translate(-71 -4.51)"/><circle class="cls-3" cx="333.5" cy="175.99" r="36"/><path class="cls-2" d="M405.5,297.5a108,108,0,1,0,108,108A108,108,0,0,0,405.5,297.5Zm0,144a36,36,0,1,1,36-36A36,36,0,0,1,405.5,441.5Z" transform="translate(-71 -4.51)"/><path class="cls-2" d="M630.5,298.5a108,108,0,1,0,108,108A108,108,0,0,0,630.5,298.5Zm0,144a36,36,0,1,1,36-36A36,36,0,0,1,630.5,442.5Z" transform="translate(-71 -4.51)"/><circle cx="476.5" cy="247.99" r="36"/><path d="M180,297a108,108,0,1,0,35.5,210v9.16a117.53,117.53,0,0,1-116-27.13v77a180,180,0,0,0,188-16.65v-134c.33-3.41.5-6.88.5-10.38A108,108,0,0,0,180,297Zm0,144a36,36,0,1,1,36-36A36,36,0,0,1,180,441Z" transform="translate(-71 -4.51)"/><circle class="cls-3" cx="109" cy="400.49" r="36"/></svg>